<?xml version="1.0" encoding="UTF-8"?>
<svg width="29px" height="27px" viewBox="0 0 29 27" version="1.1" xmlns="http://www.w3.org/2000/svg" xmlns:xlink="http://www.w3.org/1999/xlink">
    <!-- Generator: Sketch 52.4 (67378) - http://www.bohemiancoding.com/sketch -->
    <title>Group 3</title>
    <desc>Created with Sketch.</desc>
    <defs>
        <polygon id="path-1" points="0 0 29 0 29 27 0 27"></polygon>
    </defs>
    <g id="Page-2" stroke="none" stroke-width="1" fill="none" fill-rule="evenodd">
        <g id="Desktop-HD" transform="translate(-205.000000, -2006.000000)">
            <g id="Granatowe" transform="translate(199.000000, 1734.000000)">
                <g id="Group-5-Copy" transform="translate(0.000000, 265.000000)">
                    <g id="Group-3" transform="translate(6.000000, 7.000000)">
                        <mask id="mask-2" fill="white">
                            <use xlink:href="#path-1"></use>
                        </mask>
                        <g id="Clip-2"></g>
                        <path d="M14.5,0 C6.49292078,0 0,6.19681934 0,13.8418171 C0,19.9572653 4.15469133,25.1457691 9.91598496,26.9760485 C10.6406488,27.1041795 10.906695,26.6757773 10.906695,26.3101798 C10.906695,25.9803399 10.8932487,24.8897363 10.8870057,23.733119 C6.85309167,24.5704403 6.00188779,22.0999643 6.00188779,22.0999643 C5.34229483,20.5002749 4.39192389,20.0746232 4.39192389,20.0746232 C3.07633967,19.2155265 4.49109095,19.233176 4.49109095,19.233176 C5.94714182,19.3308215 6.71382559,20.6598083 6.71382559,20.6598083 C8.00707922,22.7756892 10.1059151,22.1639152 10.9333477,21.8102369 C11.0634894,20.9158411 11.4392677,20.304984 11.8539445,19.9593282 C8.63329635,19.6095466 5.24768994,18.4224436 5.24768994,13.1186448 C5.24768994,11.6076615 5.8141187,10.3728819 6.74167881,9.40330374 C6.59112738,9.05466819 6.09481188,7.64683152 6.88214546,5.74022366 C6.88214546,5.74022366 8.10000331,5.36843742 10.8706779,7.15906264 C12.0273067,6.85260259 13.2677353,6.69879953 14.5,6.69329837 C15.7322647,6.69879953 16.9736537,6.85260259 18.1324435,7.15906264 C20.8999967,5.36843742 22.1159336,5.74022366 22.1159336,5.74022366 C22.9051881,7.64683152 22.4088726,9.05466819 22.2583212,9.40330374 C23.1880423,10.3728819 23.7503892,11.6076615 23.7503892,13.1186448 C23.7503892,18.4352797 20.3582997,19.6056499 17.1294876,19.9483259 C17.6495744,20.3778742 18.1129943,21.2202382 18.1129943,22.5116338 C18.1129943,24.3636886 18.0964264,25.8542718 18.0964264,26.3101798 C18.0964264,26.678757 18.3571902,27.1101391 19.0921789,26.974444 C24.8503511,25.1421017 29,19.9554315 29,13.8418171 C29,6.19681934 22.5080397,0 14.5,0" id="Fill-1" fill="#FFFFFF" mask="url(#mask-2)"></path>
                    </g>
                </g>
            </g>
        </g>
    </g>
</svg>