<?xml version="1.0" encoding="UTF-8"?>
<svg width="123px" height="89px" viewBox="0 0 123 89" version="1.1" xmlns="http://www.w3.org/2000/svg" xmlns:xlink="http://www.w3.org/1999/xlink">
    <!-- Generator: Sketch 52.4 (67378) - http://www.bohemiancoding.com/sketch -->
    <title>Princ 1</title>
    <desc>Created with Sketch.</desc>
    <g id="Page-2" stroke="none" stroke-width="1" fill="none" fill-rule="evenodd">
        <g id="Desktop-HD" transform="translate(-199.000000, -1182.000000)" fill="#E59767">
            <g id="Design-Principles" transform="translate(0.000000, 976.000000)">
                <g id="Group-12" transform="translate(199.000000, 207.000000)">
                    <g id="Princ-1">
                        <path id="Oval" d="M105.738943,38.5758933 C105.656519,38.1254458 105.567484,37.6766081 105.47188,37.2294892 L106.449775,37.0203923 C106.554243,37.5089629 106.651031,37.9995377 106.740089,38.4919794 L110.774314,38.1538395 L107.041762,47.4982528 L101.805763,38.9055638 L105.738943,38.5758933 Z M105.983845,35.0492185 L105.015825,35.3000919 C104.850075,34.6605301 104.670742,34.0251044 104.477978,33.3941627 L105.43434,33.1019782 C105.631282,33.7465972 105.814503,34.3957963 105.983845,35.0492185 Z M104.800233,31.1757729 L103.857325,31.5088267 C103.637465,30.886381 103.404366,30.2689923 103.158216,29.6570237 L104.085979,29.2838531 C104.33746,29.9090758 104.575608,30.5398396 104.800233,31.1757729 Z M103.283139,27.4062245 L102.372379,27.8191615 C102.100116,27.2186662 101.815091,26.6241669 101.517525,26.0360353 L102.409818,25.5845787 C102.713809,26.1854096 103.004991,26.7927515 103.283139,27.4062245 Z M101.464997,23.8115478 L100.592646,24.3004281 C100.270194,23.7250505 99.9355244,23.1566238 99.5888906,22.5955228 L100.43964,22.0699516 C100.79373,22.6431221 101.135602,23.2237816 101.464997,23.8115478 Z M99.3299273,20.3570028 L98.5025127,20.9185944 C98.1319089,20.3725695 97.7497303,19.8344535 97.3562644,19.3046169 L98.1591003,18.7084169 C98.561,19.2496102 98.9513735,19.7992648 99.3299273,20.3570028 Z M96.9036687,17.0915519 L96.1271503,17.7216465 C95.7112501,17.2090978 95.2845145,16.7053901 94.8472603,16.2108821 L95.5964036,15.5484741 C96.0430081,16.0535568 96.4788709,16.568038 96.9036687,17.0915519 Z M94.2543913,14.0926714 L93.5333327,14.7855455 C93.0760021,14.3096117 92.6086394,13.8433941 92.1315857,13.3872329 L92.8226888,12.6644767 C93.3099374,13.1303863 93.7872874,13.6065668 94.2543913,14.0926714 Z M91.3254851,11.2925428 L90.6657156,12.0440108 C90.170136,11.6089047 89.6654108,11.1843308 89.1518985,10.770604 L89.779287,9.99189755 C90.3037861,10.4144762 90.8193073,10.8481317 91.3254851,11.2925428 Z M88.1631433,8.74585154 L87.5696376,9.55068137 C87.038828,9.15924644 86.4997862,8.77911303 85.9528824,8.41056684 L86.5117156,7.58128678 C87.0703529,7.95773989 87.6209546,8.34602539 88.1631433,8.74585154 Z M84.7937388,6.47646812 L84.2710368,7.32898357 C83.7087692,6.98424093 83.1392134,6.65148753 82.5627442,6.33097676 L83.0486769,5.45698051 C83.63756,5.7843933 84.2193748,6.12430885 84.7937388,6.47646812 Z M81.2387732,4.50126985 L80.791049,5.39544156 C80.2012261,5.10010903 79.6050725,4.81736302 79.0029604,4.547423 L79.4120512,3.63492934 C80.0271781,3.91070416 80.6362122,4.19955921 81.2387732,4.50126985 Z M77.5240261,2.83723408 L77.1549274,3.76662428 C76.5421242,3.52325515 75.9239534,3.29294913 75.3007771,3.07589133 L75.6297044,2.13153607 C76.2663851,2.35329757 76.8979492,2.58859344 77.5240261,2.83723408 Z M73.6723154,1.49731945 L73.3849201,2.45513153 C72.7536721,2.2657231 72.118003,2.08973447 71.4782585,1.92731777 L71.7243296,0.958066001 C72.3779372,1.12400221 73.027384,1.30380529 73.6723154,1.49731945 Z M69.8686618,0.526641643 L69.6619141,1.50503594 C69.0173145,1.36882349 68.3691709,1.24625711 67.7178089,1.1374596 L67.8825574,0.151123981 C68.5479808,0.262270193 69.2101273,0.387484568 69.8686618,0.526641643 Z M65.870567,-0.140752093 L65.7482215,0.851735487 C65.0946527,0.771169081 64.4383988,0.704350471 63.7797606,0.651375404 L63.8599329,-0.345405617 C64.5326619,-0.29129721 65.2029767,-0.223046951 65.870567,-0.140752093 Z M61.8272097,-0.4654959 L61.7894071,0.533789325 C61.1961111,0.511345133 60.6012756,0.500064267 60.0051536,0.500000277 C59.9023923,0.500066856 59.9023923,0.500066856 59.8049012,0.500400542 L59.8007946,-0.499591025 C59.9003923,-0.499931849 59.9003923,-0.499931849 60.0052092,-0.49999972 C60.6139524,-0.499934378 61.2213552,-0.488415177 61.8272097,-0.4654959 Z M57.7815112,-0.449099497 L57.8274457,0.549844958 C57.167081,0.580210513 56.5087809,0.624418643 55.8528353,0.682383462 L55.76481,-0.313734776 C56.4347613,-0.372937261 57.1070949,-0.418087803 57.7815112,-0.449099497 Z M53.7536622,-0.0929095661 L53.8839135,0.898571443 C53.2294738,0.984545496 52.5779011,1.08431482 51.9295104,1.19776832 L51.757152,0.212734019 C52.4195252,0.0968338931 53.0851367,-0.00508506367 53.7536622,-0.0929095661 Z M49.7566902,0.607399282 L49.9713719,1.58408334 C49.3265313,1.72582366 48.6854298,1.88122933 48.0484058,2.05015987 L47.7920786,1.08356981 C48.4429031,0.910979544 49.0978895,0.752208115 49.7566902,0.607399282 Z M45.8555301,1.64169153 L46.1529441,2.59644013 C45.5230605,2.79265537 44.8978191,3.00224934 44.2775762,3.22504999 L43.9395107,2.28392741 C44.5731969,2.05629775 45.2119916,1.84216037 45.8555301,1.64169153 Z M42.0388693,3.0133583 L42.4172315,3.9390159 C41.8067726,4.1885408 41.2018945,4.45104208 40.6029655,4.72631405 L40.1853546,3.81768807 C40.7972355,3.53646334 41.4151993,3.26828321 42.0388693,3.0133583 Z M38.3452386,4.71213058 L38.801751,5.60184763 C38.2151968,5.90280767 37.6351769,6.21622562 37.0620652,6.54186162 L36.5680508,5.6724079 C37.1535109,5.33975566 37.7460341,5.01958145 38.3452386,4.71213058 Z M34.7998864,6.7284507 L35.3311409,7.57566295 C34.7725883,7.92591002 34.221529,8.28799891 33.6783354,8.66165638 L33.1115884,7.83776449 C33.6664414,7.45608668 34.229334,7.08622237 34.7998864,6.7284507 Z M31.5136659,8.98629686 L32.1139508,9.78608304 C31.586136,10.1822381 31.0667514,10.5895644 30.5561619,11.0077579 L29.9225263,10.2341262 C30.4440437,9.80698238 30.9745476,9.39093577 31.5136659,8.98629686 Z M28.3779078,11.5551419 L29.043886,12.3011131 C28.5516925,12.7405271 28.0688304,13.1903246 27.5956485,13.650175 L26.8987163,12.9330381 C27.3820109,12.4633599 27.8751932,12.0039488 28.3779078,11.5551419 Z M25.4645998,14.387617 L26.1915382,15.0743196 C25.738328,15.5540847 25.2953152,16.0433892 24.8628264,16.5418811 L24.1074843,15.8865505 C24.5492197,15.3774008 25.0017026,14.8776367 25.4645998,14.387617 Z M22.8040835,17.4553336 L23.5867254,18.0778059 C23.1762159,18.5939445 22.7766864,19.1187103 22.3884356,19.6517376 L21.5801286,19.0629763 C21.976698,18.5185286 22.3847845,17.9825233 22.8040835,17.4553336 Z M20.4073923,20.7481734 L21.2403268,21.301545 C20.875333,21.8509333 20.5220481,22.4080153 20.1807396,22.9724172 L19.325036,22.4549509 C19.6736823,21.8784149 20.0345589,21.309362 20.4073923,20.7481734 Z M18.3009519,24.2342208 L19.1782393,24.7141861 C18.8617556,25.2926597 18.55761,25.8778663 18.2660363,26.4694321 L17.3690708,26.0273316 C17.6669374,25.4229983 17.9776441,24.8251674 18.3009519,24.2342208 Z M16.5296131,27.8245967 L17.4443362,28.2286781 C17.1779308,28.8317427 16.9243854,29.4405937 16.6839,30.0548642 L15.7527183,29.6903088 C15.9984104,29.0627387 16.2574436,28.4407096 16.5296131,27.8245967 Z M15.0744838,31.5350741 L16.0200494,31.8605056 C15.8054909,32.4839215 15.6042074,33.1121937 15.416366,33.744968 L14.4577136,33.4603886 C14.6496271,32.8138964 14.8552743,32.1720039 15.0744838,31.5350741 Z M13.9202986,35.4254611 L14.8903512,35.668356 C14.730314,36.3074985 14.5838346,36.9505705 14.4510484,37.5972371 L13.4714865,37.3960944 C13.6071456,36.7354366 13.7567958,36.0784441 13.9202986,35.4254611 Z M13.1053746,39.3964627 L14.0926761,39.5553209 C13.9880305,40.2056918 13.8971083,40.8591124 13.8200165,41.5152709 L12.8268477,41.3985839 C12.9055964,40.7283228 12.9984751,40.060842 13.1053746,39.3964627 Z M12.6322855,43.4283341 L13.6295329,43.50248 C13.5807137,44.1590877 13.5456457,44.8179187 13.5244107,45.4786874 L12.5249267,45.4465673 C12.5466124,44.7717733 12.5824263,44.0989306 12.6322855,43.4283341 Z" fill-rule="nonzero"></path>
                        <path d="M3,54 L25,54 C26.6568542,54 28,55.3431458 28,57 L28,78 C28,79.6568542 26.6568542,81 25,81 L3,81 C1.34314575,81 2.02906125e-16,79.6568542 0,78 L0,57 C-2.02906125e-16,55.3431458 1.34314575,54 3,54 Z M14.5,71.25 L18.9083894,73.5676275 L18.0664619,68.6588137 L21.6329239,65.1823725 L16.7041947,64.4661863 L14.5,60 L12.2958053,64.4661863 L7.36707613,65.1823725 L10.9335381,68.6588137 L10.0916106,73.5676275 L14.5,71.25 Z" id="Combined-Shape"></path>
                        <path d="M91,54 L120,54 C121.656854,54 123,55.3431458 123,57 L123,85 C123,86.6568542 121.656854,88 120,88 L91,88 C89.3431458,88 88,86.6568542 88,85 L88,57 C88,55.3431458 89.3431458,54 91,54 Z M106.5,76.25 L112.08396,79.1856614 L111.017518,72.9678307 L115.535037,68.5643386 L109.29198,67.6571693 L106.5,62 L103.70802,67.6571693 L97.4649631,68.5643386 L101.982482,72.9678307 L100.91604,79.1856614 L106.5,76.25 Z" id="Combined-Shape-Copy"></path>
                    </g>
                </g>
            </g>
        </g>
    </g>
</svg>