<?xml version="1.0" encoding="UTF-8"?>
<svg width="24px" height="24px" viewBox="0 0 24 24" version="1.1" xmlns="http://www.w3.org/2000/svg" xmlns:xlink="http://www.w3.org/1999/xlink">
    <!-- Generator: Sketch 52.4 (67378) - http://www.bohemiancoding.com/sketch -->
    <title>Instagram_simple_icon</title>
    <desc>Created with Sketch.</desc>
    <g id="Symbols" stroke="none" stroke-width="1" fill="none" fill-rule="evenodd">
        <g id="Stopka" transform="translate(-384.000000, -50.000000)" fill="#C4BCFA">
            <g id="Group-5" transform="translate(199.000000, 30.000000)">
                <g id="Instagram_simple_icon" transform="translate(185.000000, 20.000000)">
                    <path d="M12,2.16528571 C15.2031429,2.16528571 15.5825238,2.17752381 16.847619,2.2352381 C18.0172381,2.28861905 18.652381,2.484 19.0751429,2.64828571 C19.5961948,2.84059619 20.0675229,3.14723773 20.4544762,3.54566667 C20.8529051,3.93261992 21.1595467,4.40394806 21.3518571,4.925 C21.5161429,5.34771429 21.7115714,5.98290476 21.7649048,7.15252381 C21.822619,8.41752381 21.8348571,8.79690476 21.8348571,12.0001429 C21.8348571,15.203381 21.822619,15.5826667 21.7649048,16.8477619 C21.7115238,18.017381 21.5160952,18.6525238 21.3518571,19.0752857 C20.94828,20.1214962 20.1213533,20.9484229 19.0751429,21.352 C18.6524286,21.5162857 18.0172381,21.7117143 16.847619,21.7650476 C15.5828571,21.8227619 15.2034762,21.835 12,21.835 C8.79652381,21.835 8.41728571,21.8227619 7.15238095,21.7650476 C5.9827619,21.7116667 5.34761905,21.5162381 4.92485714,21.352 C4.40380448,21.159691 3.93247603,20.8530492 3.54552381,20.454619 C3.14709613,20.0676648 2.84045478,19.5963369 2.64814286,19.0752857 C2.48385714,18.6525714 2.28842857,18.017381 2.23509524,16.8477619 C2.17738095,15.5828095 2.16514286,15.203381 2.16514286,12.0001429 C2.16514286,8.79690476 2.17738095,8.41761905 2.23509524,7.15252381 C2.28847619,5.98290476 2.48385714,5.3477619 2.64814286,4.925 C2.84047479,4.4039221 3.14714974,3.93257636 3.54561905,3.54561905 C3.93257333,3.14719137 4.40390118,2.84055002 4.92495238,2.6482381 C5.34766667,2.48395238 5.98285714,2.28852381 7.15247619,2.23519048 C8.41747619,2.17747619 8.79685714,2.1652381 12.0000952,2.1652381 L12,2.16528571 Z M12.0000952,0.00376190476 C8.74209524,0.00376190476 8.33342857,0.0175714286 7.05409524,0.075952381 C5.77719048,0.134238095 4.90519048,0.337 4.14214286,0.633571429 C3.34169518,0.934791962 2.61658672,1.40699 2.01738095,2.0172381 C1.40699533,2.6164063 0.934665444,3.34151758 0.633333333,4.142 C0.337,4.90509524 0.134238095,5.77709524 0.0761904762,7.054 C0.0175714286,8.33333333 0.00376190476,8.742 0.00376190476,12 C0.00376190476,15.258 0.0175714286,15.6666667 0.0761904762,16.946 C0.13447619,18.2229048 0.337238095,19.0949048 0.633809524,19.8579524 C0.93503143,20.6583994 1.40722928,21.3835075 2.01747619,21.9827143 C2.61668001,22.5929648 3.34178902,23.0651632 4.1422381,23.366381 C4.90533333,23.6629524 5.77733333,23.8657143 7.05419048,23.924 C8.33371429,23.982381 8.7422381,23.9961905 12.0001905,23.9961905 C15.2581429,23.9961905 15.6668571,23.982381 16.9461905,23.924 C18.2230952,23.8657143 19.0950952,23.6629524 19.8581429,23.366381 C21.4695116,22.7431652 22.7433556,21.4693211 23.3665714,19.8579524 C23.6631429,19.0948571 23.8659048,18.2228571 23.9241905,16.946 C23.9825714,15.6664762 23.996381,15.2579524 23.996381,12 C23.996381,8.74204762 23.9825714,8.33333333 23.9241905,7.054 C23.8659048,5.77709524 23.6631429,4.90509524 23.3665714,4.14204762 C23.0653536,3.34159855 22.5931552,2.61648954 21.9829048,2.01728571 C21.3836868,1.40691595 20.6585255,0.934617786 19.858,0.633333333 C19.0949048,0.337 18.2229048,0.134238095 16.946,0.0761904762 C15.6666667,0.0175714286 15.258,0.00376190476 12,0.00376190476 L12.0000952,0.00376190476 Z" id="Shape" fill-rule="nonzero"></path>
                    <path d="M12,5.8397619 C8.59779444,5.8397619 5.8397619,8.59779444 5.8397619,12 C5.8397619,15.4022056 8.59779444,18.1602381 12,18.1602381 C15.4022056,18.1602381 18.1602381,15.4022056 18.1602381,12 C18.1602381,8.59779444 15.4022056,5.8397619 12,5.8397619 Z M12,15.9987143 C9.79157728,15.998688 8.0013158,14.208391 8.00133333,11.9999683 C8.00135087,9.79154553 9.79164077,8.00127695 12.0000635,8.00128571 C14.2084862,8.00129448 15.9987619,9.79157728 15.9987619,12 C15.9987356,14.2084366 14.2084366,15.9987143 12,15.9987143 Z" id="Shape" fill-rule="nonzero"></path>
                    <circle id="Oval" cx="18.403619" cy="5.59638095" r="1.43952381"></circle>
                </g>
            </g>
        </g>
    </g>
</svg>