<?xml version="1.0" encoding="UTF-8"?>
<svg width="28px" height="20px" viewBox="0 0 28 20" version="1.1" xmlns="http://www.w3.org/2000/svg" xmlns:xlink="http://www.w3.org/1999/xlink">
    <!-- Generator: Sketch 52.4 (67378) - http://www.bohemiancoding.com/sketch -->
    <title>Group 3</title>
    <desc>Created with Sketch.</desc>
    <defs>
        <polygon id="path-1" points="0 0 28 0 28 20 0 20"></polygon>
    </defs>
    <g id="Symbols" stroke="none" stroke-width="1" fill="none" fill-rule="evenodd">
        <g id="Stopka" transform="translate(-266.000000, -52.000000)">
            <g id="Group-3" transform="translate(266.000000, 52.000000)">
                <mask id="mask-2" fill="white">
                    <use xlink:href="#path-1"></use>
                </mask>
                <g id="Clip-2"></g>
                <path d="M13.5180693,7.27434783 C14.4133284,4.39155025 15.5092491,2.52215329 16.7681,1.16741528 C17.7079505,0.157551829 18.1950263,-0.164331091 17.6427784,0.949879019 C17.8863163,0.748260047 18.2361877,0.47943475 18.5088815,0.336179165 C20.031851,-0.404858988 19.9238025,0.215915216 18.8741884,0.882672695 C21.7400466,-0.173174029 21.6405733,1.17272104 18.6100698,1.84301569 C21.0883254,1.89253614 23.724366,3.51786803 24.4824207,6.97722514 C24.5870391,7.45651234 24.460125,7.41052907 24.9351954,7.49718986 C25.9642288,7.68466013 26.9280902,7.6740486 27.8696558,7.3645458 C27.7684675,8.08082372 26.8509127,8.54596223 25.4205562,8.85192786 C24.892319,8.96688605 24.7825554,8.93505148 25.4171261,9.08361282 C26.2009065,9.26400875 27.0738699,9.31176061 28,9.26754592 C27.2796766,10.1235423 26.1305892,10.5586148 24.7105231,10.5780692 C23.8221242,13.9242367 21.7914982,16.3206728 19.2223447,17.8222035 C13.1887786,21.3540727 4.40597819,20.8411824 0,14.424747 C2.89158398,16.7645882 7.1723631,17.2792472 10.3520764,14.0197405 C8.26999877,14.0197405 7.72975622,12.4103259 9.38135489,11.5419494 C7.81722406,11.5242635 6.82420679,11.0149103 6.23937278,10.0917077 C6.01813059,9.74152736 6.01641553,9.71322996 6.37657724,9.44440467 C6.77447017,9.14905056 7.31642778,9.0164065 7.8738209,8.97219181 C6.25652334,8.49467319 5.26522112,7.62275957 4.92392503,6.45372325 C4.81073135,6.064634 4.79358079,6.08585705 5.17432317,5.98504756 C5.54820532,5.88777525 6.02842092,5.83648622 6.45889991,5.81349458 C5.18632856,5.0193988 4.42827392,4.0449071 4.23447262,2.96606874 C4.05096166,1.95089953 4.23961779,2.21088189 4.97880681,2.50269882 C8.28028911,3.80437921 11.569766,5.2033319 13.5180693,7.27434783" id="Fill-1" fill="#C4BCFA" mask="url(#mask-2)"></path>
            </g>
        </g>
    </g>
</svg>